<?xml version="1.0" encoding="UTF-8"?>
<svg width="120px" height="107px" viewBox="5 30 105 10" version="1.1" xmlns="http://www.w3.org/2000/svg"
  xmlns:xlink="http://www.w3.org/1999/xlink">
  <!-- Generator: Sketch 48.1 (47250) - http://www.bohemiancoding.com/sketch -->
  <title>gov_v_pos (1)</title>
  <desc>Created with Sketch.</desc>
  <style>
    @keyframes blinkAnimation {
      0% {
        opacity: 1;
      }

      50% {
        opacity: 0;
      }

      100% {
        opacity: 1;
      }
    }

    [id^="Path-2"] {
      animation: blinkAnimation 1.4s infinite;
      animation-play-state: running;
    }


    [id^="Path-2-Copy-1"] {
      animation-delay: calc(1.4s / 7);
    }

    [id^="Path-2-Copy-2"] {
      animation-delay: calc(1.4s / 7 * 3);
    }

    [id^="Path-2-Copy-3"] {
      animation-delay: calc(1.4s / 7 * 5);
    }

    [id^="Path-2-Copy-4"] {
      animation-delay: calc(1.4s / 7 * 7);
    }

    [id^="Path-2-Copy-5"] {
      animation-delay: calc(1.4s / 7 * 9);
    }

    [id^="Path-2-Copy-6"] {
      animation-delay: calc(1.4s / 7 * 11);
    }

    [id^="Path-2-Copy-7"] {
      animation-delay: calc(1.4s / 7 * 13);
    }
  </style>
  <defs>
    <path
      d="M88.7630077,34.7856457 C84.0719234,14.8691969 66.0731226,0.0362283465 44.584908,0.0362283465 C22.7342146,0.0362283465 4.49160153,15.3730079 0.180386973,35.7966535 L9.76272031,30.3752677 L15.0461149,34.0458425 C15.0461149,34.0458425 18.1358812,32.6590079 18.7861609,32.2510157 L22.606682,36.2483228 C22.606682,36.2483228 30.8997088,42.7741654 31.1424981,42.7741654 C31.3869923,42.7741654 38.4599349,38.6952598 38.4599349,38.6952598 L44.8024636,34.3718976 L50.3296705,38.3688661 L54.4755019,39.1848504 L58.7028314,42.0401181 C58.7028314,42.0401181 68.9470383,35.2691417 70.57359,34.4531575 C70.57359,34.4531575 75.0443908,36.0854646 75.4505172,36.0035276 C75.8563027,35.9219291 82.8484291,30.538126 82.8484291,30.538126 L88.7630077,34.7856457"
      id="path-1"></path>
    <path
      d="M2.83517647,22.6710303 C3.28623529,22.6710303 3.762,22.6814848 4.20635294,22.7058788 L5.87647059,0.165181818 C4.72305882,0.0811969697 3.55764706,0.0372878788 2.382,0.0372878788 C1.62105882,0.0372878788 0.864705882,0.0568030303 0.112941176,0.092 L1.22752941,22.7253939 C1.75870588,22.6905455 2.29482353,22.6710303 2.83517647,22.6710303"
      id="path-3"></path>
    <path
      d="M28.8780437,36.5446667 L35.2887233,32.0700598 L40.8753204,36.2068547 L45.065699,37.0513846 L49.3384515,40.0065385 C49.3384515,40.0065385 53.9982573,36.8526923 57.5623883,34.522 C56.9464806,32.8742906 56.158932,31.3127863 55.2193883,29.8620171 L70.6880825,17.6864188 L54.2433107,28.4652137 C52.7660971,26.5042222 50.9979903,24.7822222 49.0041311,23.365094 L58.7001117,6.4625812 L47.6130825,22.4487265 C45.5458107,21.1892906 43.2745,20.2420855 40.8591214,19.672641 L43.6357039,0.213760684 L39.2243981,19.3502479 C38.0149854,19.1557607 36.7748981,19.0534359 35.5113738,19.0534359 C34.1665097,19.0534359 32.8478398,19.1697778 31.5643252,19.3894957 L27.1437136,0.213760684 L29.928568,19.7315128 C27.5352476,20.3219829 25.2842718,21.2825043 23.2390583,22.5528034 L12.0793058,6.4625812 L21.8459417,23.4873932 C19.8865485,24.9066239 18.1501505,26.6233675 16.6991311,28.572094 L0.0920242718,17.6864188 L15.7209854,29.9888718 C14.820733,31.398641 14.0617913,32.910735 13.4648398,34.5034274 C15.3966602,36.0551197 21.2769078,40.766265 21.4819806,40.766265 C21.7291019,40.766265 28.8780437,36.5446667 28.8780437,36.5446667"
      id="path-17"></path>
  </defs>
  <g id="1.0---Login" stroke="none" stroke-width="1" fill="none" fill-rule="evenodd"
    transform="translate(-128.000000, -143.000000)">
    <g id="gov_v_pos-(1)" transform="translate(128.000000, 143.000000)">
      <g id="Group-14" transform="translate(15.000000, 0.000000)">
        <mask id="mask-2" fill="white">
          <use xlink:href="#path-1"></use>
        </mask>
        <g id="Clip-13"></g>
        <path
          d="M88.7630077,34.7856457 C84.0719234,14.8691969 66.0731226,0.0362283465 44.584908,0.0362283465 C22.7342146,0.0362283465 4.49160153,15.3730079 0.180386973,35.7966535 L9.76272031,30.3752677 L15.0461149,34.0458425 C15.0461149,34.0458425 18.1358812,32.6590079 18.7861609,32.2510157 L22.606682,36.2483228 C22.606682,36.2483228 30.8997088,42.7741654 31.1424981,42.7741654 C31.3869923,42.7741654 38.4599349,38.6952598 38.4599349,38.6952598 L44.8024636,34.3718976 L50.3296705,38.3688661 L54.4755019,39.1848504 L58.7028314,42.0401181 C58.7028314,42.0401181 68.9470383,35.2691417 70.57359,34.4531575 C70.57359,34.4531575 75.0443908,36.0854646 75.4505172,36.0035276 C75.8563027,35.9219291 82.8484291,30.538126 82.8484291,30.538126 L88.7630077,34.7856457"
          id="Fill-12" fill="#FCBA19" mask="url(#mask-2)"></path>
      </g>
      <g id="Group-17" transform="translate(57.000000, 0.000000)">
        <mask id="mask-4" fill="white">
          <use xlink:href="#path-3"></use>
        </mask>
        <g id="Clip-16"></g>
        <path
          d="M2.83517647,22.6710303 C3.28623529,22.6710303 3.762,22.6814848 4.20635294,22.7058788 L5.87647059,0.165181818 C4.72305882,0.0811969697 3.55764706,0.0372878788 2.382,0.0372878788 C1.62105882,0.0372878788 0.864705882,0.0568030303 0.112941176,0.092 L1.22752941,22.7253939 C1.75870588,22.6905455 2.29482353,22.6710303 2.83517647,22.6710303"
          id="Fill-15" mask="url(#mask-4)"></path>
      </g>
      <g id="Group-20" transform="translate(41.000000, 2.000000)">
        <mask id="mask-6" fill="white">
          <use xlink:href="#path-5"></use>
        </mask>
        <g id="Clip-19"></g>
        <path
          d="M11.988,23.8681212 L5.32733333,2.16692424 C3.59233333,2.74993939 1.90466667,3.44168182 0.27,4.23483333 L9.42966667,24.9686364 C10.253,24.5487121 11.112,24.182803 11.988,23.8681212"
          id="Fill-18" mask="url(#mask-6)"></path>
      </g>
      <g id="Group-23" transform="translate(26.000000, 10.000000)">
        <mask id="mask-8" fill="white">
          <use xlink:href="#path-7"></use>
        </mask>
        <g id="Clip-22"></g>
        <path
          d="M18.9671818,19.7262069 L4.40178182,2.27793103 C2.95087273,3.48172414 1.57630909,4.7737931 0.284654545,6.14482759 L16.8951455,21.7355172 C17.5356182,21.0331034 18.2462182,20.3468966 18.9671818,19.7262069"
          id="Fill-21" mask="url(#mask-8)"></path>
      </g>
      <g id="Group-26" transform="translate(17.000000, 24.000000)">
        <mask id="mask-10" fill="white">
          <use xlink:href="#path-9"></use>
        </mask>
        <g id="Clip-25"></g>
        <path
          d="M22.7439104,11.1349 L2.70335821,0.1841 C1.94161194,1.575 0.842074627,3.955 0.327149254,5.35815 L21.5887612,13.7648 C21.923806,12.86705 22.3086269,11.97665 22.7439104,11.1349"
          id="Fill-24" mask="url(#mask-10)"></path>
      </g>
      <g id="Group-29" transform="translate(67.000000, 3.000000)">
        <mask id="mask-12" fill="white">
          <use xlink:href="#path-11"></use>
        </mask>
        <g id="Clip-28"></g>
        <path
          d="M2.89864865,21.8913538 L12.8854595,2.31676923 C11.1747297,1.50107692 9.40497297,0.783876923 7.58321622,0.1716 L0.116648649,20.8079385 C1.06143243,21.1088308 2.01113514,21.4835077 2.89864865,21.8913538"
          id="Fill-27" mask="url(#mask-12)"></path>
      </g>
      <g id="Group-32" transform="translate(75.000000, 11.000000)">
        <mask id="mask-14" fill="white">
          <use xlink:href="#path-13"></use>
        </mask>
        <g id="Clip-31"></g>
        <path
          d="M2.31281818,17.9266909 L18.8366,3.93610909 C17.5853636,2.62374545 16.2519091,1.38338182 14.8428,0.2232 L0.226618182,16.0183636 C0.963127273,16.6117091 1.65887273,17.2525091 2.31281818,17.9266909"
          id="Fill-30" mask="url(#mask-14)"></path>
      </g>
      <g id="Group-35" transform="translate(80.000000, 25.000000)">
        <mask id="mask-16" fill="white">
          <use xlink:href="#path-15"></use>
        </mask>
        <g id="Clip-34"></g>
        <path
          d="M1.46926154,12.9016216 L21.8615692,5.29240541 C21.2262769,3.50648649 20.4891077,1.77221622 19.6568308,0.096972973 L0.314769231,10.2292432 C0.749353846,11.0970811 1.13790769,11.9751081 1.46926154,12.9016216"
          id="Fill-33" mask="url(#mask-16)"></path>
      </g>
      <g id="Group-38" transform="translate(25.000000, 4.000000)">
        <mask id="mask-18" fill="white">
          <use xlink:href="#path-17"></use>
        </mask>
        <g id="Clip-37"></g>
        <path
          d="M28.8780437,36.5446667 L35.2887233,32.0700598 L40.8753204,36.2068547 L45.065699,37.0513846 L49.3384515,40.0065385 C49.3384515,40.0065385 53.9982573,36.8526923 57.5623883,34.522 C56.9464806,32.8742906 56.158932,31.3127863 55.2193883,29.8620171 L70.6880825,17.6864188 L54.2433107,28.4652137 C52.7660971,26.5042222 50.9979903,24.7822222 49.0041311,23.365094 L58.7001117,6.4625812 L47.6130825,22.4487265 C45.5458107,21.1892906 43.2745,20.2420855 40.8591214,19.672641 L43.6357039,0.213760684 L39.2243981,19.3502479 C38.0149854,19.1557607 36.7748981,19.0534359 35.5113738,19.0534359 C34.1665097,19.0534359 32.8478398,19.1697778 31.5643252,19.3894957 L27.1437136,0.213760684 L29.928568,19.7315128 C27.5352476,20.3219829 25.2842718,21.2825043 23.2390583,22.5528034 L12.0793058,6.4625812 L21.8459417,23.4873932 C19.8865485,24.9066239 18.1501505,26.6233675 16.6991311,28.572094 L0.0920242718,17.6864188 L15.7209854,29.9888718 C14.820733,31.398641 14.0617913,32.910735 13.4648398,34.5034274 C15.3966602,36.0551197 21.2769078,40.766265 21.4819806,40.766265 C21.7291019,40.766265 28.8780437,36.5446667 28.8780437,36.5446667"
          id="Fill-36" fill="#FFFFFF" mask="url(#mask-18)"></path>
      </g>
      <polygon id="Path-2-Copy-1" fill="#FFFFFF"
        transform="translate(30.000000, 31.500000) rotate(-70.000000) translate(-30.000000, -31.500000) "
        points="31.0840336 43 33 20 32.7478992 20 30.4789916 37.5238095 31.0840336 20 30.8319328 20 29.5210084 39.7142857 28.8151261 20 28.5630252 20 28.5630252 37.5238095 27.2521008 20 27 20 27.9579832 43">
      </polygon>

      <polygon id="Path-2-Copy-2" fill="#FFFFFF"
        transform="translate(37.000000, 22.500000) rotate(-45.000000) translate(-37.000000, -22.500000) "
        points="38.0840336 34 40 11 39.7478992 11 37.4789916 28.5238095 38.0840336 11 37.8319328 11 36.5210084 30.7142857 35.8151261 11 35.5630252 11 35.5630252 28.5238095 34.2521008 11 34 11 34.9579832 34">
      </polygon>
      <polygon id="Path-2-Copy-3" fill="#FFFFFF"
        transform="translate(48.000000, 15.500000) rotate(-20.000000) translate(-48.000000, -15.500000) "
        points="49.0840336 27 51 4 50.7478992 4 48.4789916 21.5238095 49.0840336 4 48.8319328 4 47.5210084 23.7142857 46.8151261 4 46.5630252 4 46.5630252 21.5238095 45.2521008 4 45 4 45.9579832 27">
      </polygon>
      <polygon id="Path-2-Copy-4" fill="#FFFFFF"
        points="62.0840336 24 64 1 63.7478992 1 61.4789916 18.5238095 62.0840336 1 61.8319328 1 60.5210084 20.7142857 59.8151261 1 59.5630252 1 59.5630252 18.5238095 58.2521008 1 58 1 58.9579832 24">
      </polygon>
      <polygon id="Path-2-Copy-5" fill="#FFFFFF"
        transform="translate(73.000000, 15.500000) scale(-1, 1) rotate(-20.000000) translate(-73.000000, -15.500000) "
        points="74.0840336 27 76 4 75.7478992 4 73.4789916 21.5238095 74.0840336 4 73.8319328 4 72.5210084 23.7142857 71.8151261 4 71.5630252 4 71.5630252 21.5238095 70.2521008 4 70 4 70.9579832 27">
      </polygon>
      <polygon id="Path-2-Copy-6" fill="#FFFFFF"
        transform="translate(83.000000, 22.500000) scale(-1, 1) rotate(-45.000000) translate(-83.000000, -22.500000) "
        points="84.0840336 34 86 11 85.7478992 11 83.4789916 28.5238095 84.0840336 11 83.8319328 11 82.5210084 30.7142857 81.8151261 11 81.5630252 11 81.5630252 28.5238095 80.2521008 11 80 11 80.9579832 34">
      </polygon>
      <polygon id="Path-2-Copy-7" fill="#FFFFFF"
        transform="translate(89.000000, 32.000000) scale(-1, 1) rotate(-70.000000) translate(-89.000000, -32.000000) "
        points="90.0840336 43 92 21 91.7478992 21 89.4789916 37.7619048 90.0840336 21 89.8319328 21 88.5210084 39.8571429 87.8151261 21 87.5630252 21 87.5630252 37.7619048 86.2521008 21 86 21 86.9579832 43">
      </polygon>
      <path
        d="M103.729195,34.3138539 L97.8744664,30.161275 C97.8744664,30.161275 90.8621287,35.4924017 90.4551703,35.5735422 C90.0478699,35.6543473 85.564146,34.03858 85.564146,34.03858 C83.9328926,34.846296 73.6590742,41.55111 73.6590742,41.55111 L69.4195253,38.7239363 L65.2617101,37.915885 L59.7185264,33.9574396 L53.3576642,38.2387703 C53.3576642,38.2387703 46.2642768,42.2780208 46.0190758,42.2780208 C45.7755848,42.2780208 37.4585864,35.8156223 37.4585864,35.8156223 L33.6270218,31.8571768 C32.9748625,32.2612025 29.876165,33.6348896 29.876165,33.6348896 L24.5774983,30 L15.0331271,35.3311268 C14.358739,38.3873042 14,41.5588217 14,44.813156 C14,47.6648059 14.2756374,50.4527505 14.7975017,53.1555312 C18.7956114,52.4413614 26.0866642,51.4264356 32.1185399,52.1731286 C40.9238884,53.2641655 46.4270602,54.7176519 55.7221266,56.7776798 C65.0161671,58.8377077 71.8653794,60.7763602 81.8933129,59.6859939 C91.2810565,58.6653681 98.0964126,56.7937738 104.344421,52.3843619 C104.77395,49.923326 105,47.3942261 105,44.813156 C105,41.1963721 104.558159,37.6815166 103.729195,34.3138539"
        id="Fill-39" fill="#234075"></path>
    </g>
  </g>
</svg>