<svg version="1.2" xmlns="http://www.w3.org/2000/svg" xmlns:xlink="http://www.w3.org/1999/xlink" overflow="visible" preserveAspectRatio="none" viewBox="0 0 24 24" width="115" height="66"><g><path xmlns:default="http://www.w3.org/2000/svg" id="long-arrow-left" d="M21,11.03c0.01-0.18-0.13-0.32-0.31-0.33c-0.01,0-0.01,0-0.02,0h-13V8.36  c0.02-0.14-0.06-0.28-0.2-0.33C7.35,7.98,7.21,8,7.11,8.09l-4,3.69C3.04,11.85,3,11.94,3,12.03c0,0.09,0.04,0.18,0.1,0.24l4,3.64  c0.1,0.09,0.24,0.11,0.36,0.05c0.13-0.04,0.21-0.17,0.2-0.3v-2.3h13c0.18,0.01,0.33-0.12,0.34-0.3c0-0.01,0-0.02,0-0.03V11.03  L21,11.03z" style="fill: rgb(0, 51, 102);" vector-effect="non-scaling-stroke"/></g></svg>